<svg width="294" height="123" viewBox="0 0 294 123" fill="none" xmlns="http://www.w3.org/2000/svg">
<path d="M54.5508 90.5977C54.9648 90.5977 55.332 90.5195 55.6523 90.3633C55.9727 90.1992 56.2227 89.9727 56.4023 89.6836C56.5898 89.3867 56.6875 89.0391 56.6953 88.6406H59.8711C59.8633 89.5312 59.625 90.3242 59.1562 91.0195C58.6875 91.707 58.0586 92.25 57.2695 92.6484C56.4805 93.0391 55.5977 93.2344 54.6211 93.2344C53.6367 93.2344 52.7773 93.0703 52.043 92.7422C51.3164 92.4141 50.7109 91.9609 50.2266 91.3828C49.7422 90.7969 49.3789 90.1172 49.1367 89.3438C48.8945 88.5625 48.7734 87.7266 48.7734 86.8359V86.4961C48.7734 85.5977 48.8945 84.7617 49.1367 83.9883C49.3789 83.207 49.7422 82.5273 50.2266 81.9492C50.7109 81.3633 51.3164 80.9062 52.043 80.5781C52.7695 80.25 53.6211 80.0859 54.5977 80.0859C55.6367 80.0859 56.5469 80.2852 57.3281 80.6836C58.1172 81.082 58.7344 81.6523 59.1797 82.3945C59.6328 83.1289 59.8633 84 59.8711 85.0078H56.6953C56.6875 84.5859 56.5977 84.2031 56.4258 83.8594C56.2617 83.5156 56.0195 83.2422 55.6992 83.0391C55.3867 82.8281 55 82.7227 54.5391 82.7227C54.0469 82.7227 53.6445 82.8281 53.332 83.0391C53.0195 83.2422 52.7773 83.5234 52.6055 83.8828C52.4336 84.2344 52.3125 84.6367 52.2422 85.0898C52.1797 85.5352 52.1484 86.0039 52.1484 86.4961V86.8359C52.1484 87.3281 52.1797 87.8008 52.2422 88.2539C52.3047 88.707 52.4219 89.1094 52.5938 89.4609C52.7734 89.8125 53.0195 90.0898 53.332 90.293C53.6445 90.4961 54.0508 90.5977 54.5508 90.5977ZM61.2891 86.7891V86.543C61.2891 85.6133 61.4219 84.7578 61.6875 83.9766C61.9531 83.1875 62.3398 82.5039 62.8477 81.9258C63.3555 81.3477 63.9805 80.8984 64.7227 80.5781C65.4648 80.25 66.3164 80.0859 67.2773 80.0859C68.2383 80.0859 69.0938 80.25 69.8438 80.5781C70.5938 80.8984 71.2227 81.3477 71.7305 81.9258C72.2461 82.5039 72.6367 83.1875 72.9023 83.9766C73.168 84.7578 73.3008 85.6133 73.3008 86.543V86.7891C73.3008 87.7109 73.168 88.5664 72.9023 89.3555C72.6367 90.1367 72.2461 90.8203 71.7305 91.4062C71.2227 91.9844 70.5977 92.4336 69.8555 92.7539C69.1133 93.0742 68.2617 93.2344 67.3008 93.2344C66.3398 93.2344 65.4844 93.0742 64.7344 92.7539C63.9922 92.4336 63.3633 91.9844 62.8477 91.4062C62.3398 90.8203 61.9531 90.1367 61.6875 89.3555C61.4219 88.5664 61.2891 87.7109 61.2891 86.7891ZM64.6641 86.543V86.7891C64.6641 87.3203 64.7109 87.8164 64.8047 88.2773C64.8984 88.7383 65.0469 89.1445 65.25 89.4961C65.4609 89.8398 65.7344 90.1094 66.0703 90.3047C66.4062 90.5 66.8164 90.5977 67.3008 90.5977C67.7695 90.5977 68.1719 90.5 68.5078 90.3047C68.8438 90.1094 69.1133 89.8398 69.3164 89.4961C69.5195 89.1445 69.668 88.7383 69.7617 88.2773C69.8633 87.8164 69.9141 87.3203 69.9141 86.7891V86.543C69.9141 86.0273 69.8633 85.543 69.7617 85.0898C69.668 84.6289 69.5156 84.2227 69.3047 83.8711C69.1016 83.5117 68.832 83.2305 68.4961 83.0273C68.1602 82.8242 67.7539 82.7227 67.2773 82.7227C66.8008 82.7227 66.3945 82.8242 66.0586 83.0273C65.7305 83.2305 65.4609 83.5117 65.25 83.8711C65.0469 84.2227 64.8984 84.6289 64.8047 85.0898C64.7109 85.543 64.6641 86.0273 64.6641 86.543ZM78.9375 75V93H75.5508V75H78.9375ZM85.2891 75V93H81.9023V75H85.2891ZM93.9141 93.2344C92.9297 93.2344 92.0469 93.0781 91.2656 92.7656C90.4844 92.4453 89.8203 92.0039 89.2734 91.4414C88.7344 90.8789 88.3203 90.2266 88.0312 89.4844C87.7422 88.7344 87.5977 87.9375 87.5977 87.0938V86.625C87.5977 85.6641 87.7344 84.7852 88.0078 83.9883C88.2812 83.1914 88.6719 82.5 89.1797 81.9141C89.6953 81.3281 90.3203 80.8789 91.0547 80.5664C91.7891 80.2461 92.6172 80.0859 93.5391 80.0859C94.4375 80.0859 95.2344 80.2344 95.9297 80.5312C96.625 80.8281 97.207 81.25 97.6758 81.7969C98.1523 82.3438 98.5117 83 98.7539 83.7656C98.9961 84.5234 99.1172 85.3672 99.1172 86.2969V87.7031H89.0391V85.4531H95.8008V85.1953C95.8008 84.7266 95.7148 84.3086 95.543 83.9414C95.3789 83.5664 95.1289 83.2695 94.793 83.0508C94.457 82.832 94.0273 82.7227 93.5039 82.7227C93.0586 82.7227 92.6758 82.8203 92.3555 83.0156C92.0352 83.2109 91.7734 83.4844 91.5703 83.8359C91.375 84.1875 91.2266 84.6016 91.125 85.0781C91.0312 85.5469 90.9844 86.0625 90.9844 86.625V87.0938C90.9844 87.6016 91.0547 88.0703 91.1953 88.5C91.3438 88.9297 91.5508 89.3008 91.8164 89.6133C92.0898 89.9258 92.418 90.168 92.8008 90.3398C93.1914 90.5117 93.6328 90.5977 94.125 90.5977C94.7344 90.5977 95.3008 90.4805 95.8242 90.2461C96.3555 90.0039 96.8125 89.6406 97.1953 89.1562L98.8359 90.9375C98.5703 91.3203 98.207 91.6875 97.7461 92.0391C97.293 92.3906 96.7461 92.6797 96.1055 92.9062C95.4648 93.125 94.7344 93.2344 93.9141 93.2344ZM106.277 90.5977C106.691 90.5977 107.059 90.5195 107.379 90.3633C107.699 90.1992 107.949 89.9727 108.129 89.6836C108.316 89.3867 108.414 89.0391 108.422 88.6406H111.598C111.59 89.5312 111.352 90.3242 110.883 91.0195C110.414 91.707 109.785 92.25 108.996 92.6484C108.207 93.0391 107.324 93.2344 106.348 93.2344C105.363 93.2344 104.504 93.0703 103.77 92.7422C103.043 92.4141 102.438 91.9609 101.953 91.3828C101.469 90.7969 101.105 90.1172 100.863 89.3438C100.621 88.5625 100.5 87.7266 100.5 86.8359V86.4961C100.5 85.5977 100.621 84.7617 100.863 83.9883C101.105 83.207 101.469 82.5273 101.953 81.9492C102.438 81.3633 103.043 80.9062 103.77 80.5781C104.496 80.25 105.348 80.0859 106.324 80.0859C107.363 80.0859 108.273 80.2852 109.055 80.6836C109.844 81.082 110.461 81.6523 110.906 82.3945C111.359 83.1289 111.59 84 111.598 85.0078H108.422C108.414 84.5859 108.324 84.2031 108.152 83.8594C107.988 83.5156 107.746 83.2422 107.426 83.0391C107.113 82.8281 106.727 82.7227 106.266 82.7227C105.773 82.7227 105.371 82.8281 105.059 83.0391C104.746 83.2422 104.504 83.5234 104.332 83.8828C104.16 84.2344 104.039 84.6367 103.969 85.0898C103.906 85.5352 103.875 86.0039 103.875 86.4961V86.8359C103.875 87.3281 103.906 87.8008 103.969 88.2539C104.031 88.707 104.148 89.1094 104.32 89.4609C104.5 89.8125 104.746 90.0898 105.059 90.293C105.371 90.4961 105.777 90.5977 106.277 90.5977ZM119.766 80.3203V82.7109H112.383V80.3203H119.766ZM114.211 77.1914H117.586V89.1797C117.586 89.5469 117.633 89.8281 117.727 90.0234C117.828 90.2188 117.977 90.3555 118.172 90.4336C118.367 90.5039 118.613 90.5391 118.91 90.5391C119.121 90.5391 119.309 90.5312 119.473 90.5156C119.645 90.4922 119.789 90.4688 119.906 90.4453L119.918 92.9297C119.629 93.0234 119.316 93.0977 118.98 93.1523C118.645 93.207 118.273 93.2344 117.867 93.2344C117.125 93.2344 116.477 93.1133 115.922 92.8711C115.375 92.6211 114.953 92.2227 114.656 91.6758C114.359 91.1289 114.211 90.4102 114.211 89.5195V77.1914ZM125.25 80.3203V93H121.863V80.3203H125.25ZM121.652 77.0156C121.652 76.5234 121.824 76.1172 122.168 75.7969C122.512 75.4766 122.973 75.3164 123.551 75.3164C124.121 75.3164 124.578 75.4766 124.922 75.7969C125.273 76.1172 125.449 76.5234 125.449 77.0156C125.449 77.5078 125.273 77.9141 124.922 78.2344C124.578 78.5547 124.121 78.7148 123.551 78.7148C122.973 78.7148 122.512 78.5547 122.168 78.2344C121.824 77.9141 121.652 77.5078 121.652 77.0156ZM127.5 86.7891V86.543C127.5 85.6133 127.633 84.7578 127.898 83.9766C128.164 83.1875 128.551 82.5039 129.059 81.9258C129.566 81.3477 130.191 80.8984 130.934 80.5781C131.676 80.25 132.527 80.0859 133.488 80.0859C134.449 80.0859 135.305 80.25 136.055 80.5781C136.805 80.8984 137.434 81.3477 137.941 81.9258C138.457 82.5039 138.848 83.1875 139.113 83.9766C139.379 84.7578 139.512 85.6133 139.512 86.543V86.7891C139.512 87.7109 139.379 88.5664 139.113 89.3555C138.848 90.1367 138.457 90.8203 137.941 91.4062C137.434 91.9844 136.809 92.4336 136.066 92.7539C135.324 93.0742 134.473 93.2344 133.512 93.2344C132.551 93.2344 131.695 93.0742 130.945 92.7539C130.203 92.4336 129.574 91.9844 129.059 91.4062C128.551 90.8203 128.164 90.1367 127.898 89.3555C127.633 88.5664 127.5 87.7109 127.5 86.7891ZM130.875 86.543V86.7891C130.875 87.3203 130.922 87.8164 131.016 88.2773C131.109 88.7383 131.258 89.1445 131.461 89.4961C131.672 89.8398 131.945 90.1094 132.281 90.3047C132.617 90.5 133.027 90.5977 133.512 90.5977C133.98 90.5977 134.383 90.5 134.719 90.3047C135.055 90.1094 135.324 89.8398 135.527 89.4961C135.73 89.1445 135.879 88.7383 135.973 88.2773C136.074 87.8164 136.125 87.3203 136.125 86.7891V86.543C136.125 86.0273 136.074 85.543 135.973 85.0898C135.879 84.6289 135.727 84.2227 135.516 83.8711C135.312 83.5117 135.043 83.2305 134.707 83.0273C134.371 82.8242 133.965 82.7227 133.488 82.7227C133.012 82.7227 132.605 82.8242 132.27 83.0273C131.941 83.2305 131.672 83.5117 131.461 83.8711C131.258 84.2227 131.109 84.6289 131.016 85.0898C130.922 85.543 130.875 86.0273 130.875 86.543ZM144.891 83.0273V93H141.516V80.3203H144.68L144.891 83.0273ZM144.398 86.2148H143.484C143.484 85.2773 143.605 84.4336 143.848 83.6836C144.09 82.9258 144.43 82.2812 144.867 81.75C145.305 81.2109 145.824 80.8008 146.426 80.5195C147.035 80.2305 147.715 80.0859 148.465 80.0859C149.059 80.0859 149.602 80.1719 150.094 80.3438C150.586 80.5156 151.008 80.7891 151.359 81.1641C151.719 81.5391 151.992 82.0352 152.18 82.6523C152.375 83.2695 152.473 84.0234 152.473 84.9141V93H149.074V84.9023C149.074 84.3398 148.996 83.9023 148.84 83.5898C148.684 83.2773 148.453 83.0586 148.148 82.9336C147.852 82.8008 147.484 82.7344 147.047 82.7344C146.594 82.7344 146.199 82.8242 145.863 83.0039C145.535 83.1836 145.262 83.4336 145.043 83.7539C144.832 84.0664 144.672 84.4336 144.562 84.8555C144.453 85.2773 144.398 85.7305 144.398 86.2148ZM161.895 89.4961C161.895 89.2539 161.824 89.0352 161.684 88.8398C161.543 88.6445 161.281 88.4648 160.898 88.3008C160.523 88.1289 159.98 87.9727 159.27 87.832C158.629 87.6914 158.031 87.5156 157.477 87.3047C156.93 87.0859 156.453 86.8242 156.047 86.5195C155.648 86.2148 155.336 85.8555 155.109 85.4414C154.883 85.0195 154.77 84.5391 154.77 84C154.77 83.4688 154.883 82.9688 155.109 82.5C155.344 82.0312 155.676 81.6172 156.105 81.2578C156.543 80.8906 157.074 80.6055 157.699 80.4023C158.332 80.1914 159.043 80.0859 159.832 80.0859C160.934 80.0859 161.879 80.2617 162.668 80.6133C163.465 80.9648 164.074 81.4492 164.496 82.0664C164.926 82.6758 165.141 83.3711 165.141 84.1523H161.766C161.766 83.8242 161.695 83.5312 161.555 83.2734C161.422 83.0078 161.211 82.8008 160.922 82.6523C160.641 82.4961 160.273 82.418 159.82 82.418C159.445 82.418 159.121 82.4844 158.848 82.6172C158.574 82.7422 158.363 82.9141 158.215 83.1328C158.074 83.3438 158.004 83.5781 158.004 83.8359C158.004 84.0312 158.043 84.207 158.121 84.3633C158.207 84.5117 158.344 84.6484 158.531 84.7734C158.719 84.8984 158.961 85.0156 159.258 85.125C159.562 85.2266 159.938 85.3203 160.383 85.4062C161.297 85.5938 162.113 85.8398 162.832 86.1445C163.551 86.4414 164.121 86.8477 164.543 87.3633C164.965 87.8711 165.176 88.5391 165.176 89.3672C165.176 89.9297 165.051 90.4453 164.801 90.9141C164.551 91.3828 164.191 91.793 163.723 92.1445C163.254 92.4883 162.691 92.7578 162.035 92.9531C161.387 93.1406 160.656 93.2344 159.844 93.2344C158.664 93.2344 157.664 93.0234 156.844 92.6016C156.031 92.1797 155.414 91.6445 154.992 90.9961C154.578 90.3398 154.371 89.668 154.371 88.9805H157.57C157.586 89.4414 157.703 89.8125 157.922 90.0938C158.148 90.375 158.434 90.5781 158.777 90.7031C159.129 90.8281 159.508 90.8906 159.914 90.8906C160.352 90.8906 160.715 90.832 161.004 90.7148C161.293 90.5898 161.512 90.4258 161.66 90.2227C161.816 90.0117 161.895 89.7695 161.895 89.4961Z" fill="white"/>
<path d="M59.9844 34.875V69H52.9531V34.875H59.9844ZM73.5781 49.4531V54.9375H58.0625V49.4531H73.5781ZM75.2188 34.875V40.3828H58.0625V34.875H75.2188ZM91.7656 63.2812V51.9844C91.7656 51.1719 91.6328 50.4766 91.3672 49.8984C91.1016 49.3047 90.6875 48.8438 90.125 48.5156C89.5781 48.1875 88.8672 48.0234 87.9922 48.0234C87.2422 48.0234 86.5938 48.1562 86.0469 48.4219C85.5 48.6719 85.0781 49.0391 84.7812 49.5234C84.4844 49.9922 84.3359 50.5469 84.3359 51.1875H77.5859C77.5859 50.1094 77.8359 49.0859 78.3359 48.1172C78.8359 47.1484 79.5625 46.2969 80.5156 45.5625C81.4688 44.8125 82.6016 44.2266 83.9141 43.8047C85.2422 43.3828 86.7266 43.1719 88.3672 43.1719C90.3359 43.1719 92.0859 43.5 93.6172 44.1562C95.1484 44.8125 96.3516 45.7969 97.2266 47.1094C98.1172 48.4219 98.5625 50.0625 98.5625 52.0312V62.8828C98.5625 64.2734 98.6484 65.4141 98.8203 66.3047C98.9922 67.1797 99.2422 67.9453 99.5703 68.6016V69H92.75C92.4219 68.3125 92.1719 67.4531 92 66.4219C91.8438 65.375 91.7656 64.3281 91.7656 63.2812ZM92.6562 53.5547L92.7031 57.375H88.9297C88.0391 57.375 87.2656 57.4766 86.6094 57.6797C85.9531 57.8828 85.4141 58.1719 84.9922 58.5469C84.5703 58.9062 84.2578 59.3281 84.0547 59.8125C83.8672 60.2969 83.7734 60.8281 83.7734 61.4062C83.7734 61.9844 83.9062 62.5078 84.1719 62.9766C84.4375 63.4297 84.8203 63.7891 85.3203 64.0547C85.8203 64.3047 86.4062 64.4297 87.0781 64.4297C88.0938 64.4297 88.9766 64.2266 89.7266 63.8203C90.4766 63.4141 91.0547 62.9141 91.4609 62.3203C91.8828 61.7266 92.1016 61.1641 92.1172 60.6328L93.8984 63.4922C93.6484 64.1328 93.3047 64.7969 92.8672 65.4844C92.4453 66.1719 91.9062 66.8203 91.25 67.4297C90.5938 68.0234 89.8047 68.5156 88.8828 68.9062C87.9609 69.2812 86.8672 69.4688 85.6016 69.4688C83.9922 69.4688 82.5312 69.1484 81.2188 68.5078C79.9219 67.8516 78.8906 66.9531 78.125 65.8125C77.375 64.6562 77 63.3438 77 61.875C77 60.5469 77.25 59.3672 77.75 58.3359C78.25 57.3047 78.9844 56.4375 79.9531 55.7344C80.9375 55.0156 82.1641 54.4766 83.6328 54.1172C85.1016 53.7422 86.8047 53.5547 88.7422 53.5547H92.6562ZM117.477 61.9922C117.477 61.5078 117.336 61.0703 117.055 60.6797C116.773 60.2891 116.25 59.9297 115.484 59.6016C114.734 59.2578 113.648 58.9453 112.227 58.6641C110.945 58.3828 109.75 58.0312 108.641 57.6094C107.547 57.1719 106.594 56.6484 105.781 56.0391C104.984 55.4297 104.359 54.7109 103.906 53.8828C103.453 53.0391 103.227 52.0781 103.227 51C103.227 49.9375 103.453 48.9375 103.906 48C104.375 47.0625 105.039 46.2344 105.898 45.5156C106.773 44.7812 107.836 44.2109 109.086 43.8047C110.352 43.3828 111.773 43.1719 113.352 43.1719C115.555 43.1719 117.445 43.5234 119.023 44.2266C120.617 44.9297 121.836 45.8984 122.68 47.1328C123.539 48.3516 123.969 49.7422 123.969 51.3047H117.219C117.219 50.6484 117.078 50.0625 116.797 49.5469C116.531 49.0156 116.109 48.6016 115.531 48.3047C114.969 47.9922 114.234 47.8359 113.328 47.8359C112.578 47.8359 111.93 47.9688 111.383 48.2344C110.836 48.4844 110.414 48.8281 110.117 49.2656C109.836 49.6875 109.695 50.1562 109.695 50.6719C109.695 51.0625 109.773 51.4141 109.93 51.7266C110.102 52.0234 110.375 52.2969 110.75 52.5469C111.125 52.7969 111.609 53.0312 112.203 53.25C112.812 53.4531 113.562 53.6406 114.453 53.8125C116.281 54.1875 117.914 54.6797 119.352 55.2891C120.789 55.8828 121.93 56.6953 122.773 57.7266C123.617 58.7422 124.039 60.0781 124.039 61.7344C124.039 62.8594 123.789 63.8906 123.289 64.8281C122.789 65.7656 122.07 66.5859 121.133 67.2891C120.195 67.9766 119.07 68.5156 117.758 68.9062C116.461 69.2812 115 69.4688 113.375 69.4688C111.016 69.4688 109.016 69.0469 107.375 68.2031C105.75 67.3594 104.516 66.2891 103.672 64.9922C102.844 63.6797 102.43 62.3359 102.43 60.9609H108.828C108.859 61.8828 109.094 62.625 109.531 63.1875C109.984 63.75 110.555 64.1562 111.242 64.4062C111.945 64.6562 112.703 64.7812 113.516 64.7812C114.391 64.7812 115.117 64.6641 115.695 64.4297C116.273 64.1797 116.711 63.8516 117.008 63.4453C117.32 63.0234 117.477 62.5391 117.477 61.9922ZM135.008 33V69H128.258V33H135.008ZM134.047 55.4297H132.195C132.211 53.6641 132.445 52.0391 132.898 50.5547C133.352 49.0547 134 47.7578 134.844 46.6641C135.688 45.5547 136.695 44.6953 137.867 44.0859C139.055 43.4766 140.367 43.1719 141.805 43.1719C143.055 43.1719 144.188 43.3516 145.203 43.7109C146.234 44.0547 147.117 44.6172 147.852 45.3984C148.602 46.1641 149.18 47.1719 149.586 48.4219C149.992 49.6719 150.195 51.1875 150.195 52.9688V69H143.398V52.9219C143.398 51.7969 143.234 50.9141 142.906 50.2734C142.594 49.6172 142.133 49.1562 141.523 48.8906C140.93 48.6094 140.195 48.4688 139.32 48.4688C138.352 48.4688 137.523 48.6484 136.836 49.0078C136.164 49.3672 135.625 49.8672 135.219 50.5078C134.812 51.1328 134.516 51.8672 134.328 52.7109C134.141 53.5547 134.047 54.4609 134.047 55.4297ZM162.453 43.6406V69H155.68V43.6406H162.453ZM155.258 37.0312C155.258 36.0469 155.602 35.2344 156.289 34.5938C156.977 33.9531 157.898 33.6328 159.055 33.6328C160.195 33.6328 161.109 33.9531 161.797 34.5938C162.5 35.2344 162.852 36.0469 162.852 37.0312C162.852 38.0156 162.5 38.8281 161.797 39.4688C161.109 40.1094 160.195 40.4297 159.055 40.4297C157.898 40.4297 156.977 40.1094 156.289 39.4688C155.602 38.8281 155.258 38.0156 155.258 37.0312ZM166.953 56.5781V56.0859C166.953 54.2266 167.219 52.5156 167.75 50.9531C168.281 49.375 169.055 48.0078 170.07 46.8516C171.086 45.6953 172.336 44.7969 173.82 44.1562C175.305 43.5 177.008 43.1719 178.93 43.1719C180.852 43.1719 182.562 43.5 184.062 44.1562C185.562 44.7969 186.82 45.6953 187.836 46.8516C188.867 48.0078 189.648 49.375 190.18 50.9531C190.711 52.5156 190.977 54.2266 190.977 56.0859V56.5781C190.977 58.4219 190.711 60.1328 190.18 61.7109C189.648 63.2734 188.867 64.6406 187.836 65.8125C186.82 66.9688 185.57 67.8672 184.086 68.5078C182.602 69.1484 180.898 69.4688 178.977 69.4688C177.055 69.4688 175.344 69.1484 173.844 68.5078C172.359 67.8672 171.102 66.9688 170.07 65.8125C169.055 64.6406 168.281 63.2734 167.75 61.7109C167.219 60.1328 166.953 58.4219 166.953 56.5781ZM173.703 56.0859V56.5781C173.703 57.6406 173.797 58.6328 173.984 59.5547C174.172 60.4766 174.469 61.2891 174.875 61.9922C175.297 62.6797 175.844 63.2188 176.516 63.6094C177.188 64 178.008 64.1953 178.977 64.1953C179.914 64.1953 180.719 64 181.391 63.6094C182.062 63.2188 182.602 62.6797 183.008 61.9922C183.414 61.2891 183.711 60.4766 183.898 59.5547C184.102 58.6328 184.203 57.6406 184.203 56.5781V56.0859C184.203 55.0547 184.102 54.0859 183.898 53.1797C183.711 52.2578 183.406 51.4453 182.984 50.7422C182.578 50.0234 182.039 49.4609 181.367 49.0547C180.695 48.6484 179.883 48.4453 178.93 48.4453C177.977 48.4453 177.164 48.6484 176.492 49.0547C175.836 49.4609 175.297 50.0234 174.875 50.7422C174.469 51.4453 174.172 52.2578 173.984 53.1797C173.797 54.0859 173.703 55.0547 173.703 56.0859ZM201.734 49.0547V69H194.984V43.6406H201.312L201.734 49.0547ZM200.75 55.4297H198.922C198.922 53.5547 199.164 51.8672 199.648 50.3672C200.133 48.8516 200.812 47.5625 201.688 46.5C202.562 45.4219 203.602 44.6016 204.805 44.0391C206.023 43.4609 207.383 43.1719 208.883 43.1719C210.07 43.1719 211.156 43.3438 212.141 43.6875C213.125 44.0312 213.969 44.5781 214.672 45.3281C215.391 46.0781 215.938 47.0703 216.312 48.3047C216.703 49.5391 216.898 51.0469 216.898 52.8281V69H210.102V52.8047C210.102 51.6797 209.945 50.8047 209.633 50.1797C209.32 49.5547 208.859 49.1172 208.25 48.8672C207.656 48.6016 206.922 48.4688 206.047 48.4688C205.141 48.4688 204.352 48.6484 203.68 49.0078C203.023 49.3672 202.477 49.8672 202.039 50.5078C201.617 51.1328 201.297 51.8672 201.078 52.7109C200.859 53.5547 200.75 54.4609 200.75 55.4297ZM235.719 63.2812V51.9844C235.719 51.1719 235.586 50.4766 235.32 49.8984C235.055 49.3047 234.641 48.8438 234.078 48.5156C233.531 48.1875 232.82 48.0234 231.945 48.0234C231.195 48.0234 230.547 48.1562 230 48.4219C229.453 48.6719 229.031 49.0391 228.734 49.5234C228.438 49.9922 228.289 50.5469 228.289 51.1875H221.539C221.539 50.1094 221.789 49.0859 222.289 48.1172C222.789 47.1484 223.516 46.2969 224.469 45.5625C225.422 44.8125 226.555 44.2266 227.867 43.8047C229.195 43.3828 230.68 43.1719 232.32 43.1719C234.289 43.1719 236.039 43.5 237.57 44.1562C239.102 44.8125 240.305 45.7969 241.18 47.1094C242.07 48.4219 242.516 50.0625 242.516 52.0312V62.8828C242.516 64.2734 242.602 65.4141 242.773 66.3047C242.945 67.1797 243.195 67.9453 243.523 68.6016V69H236.703C236.375 68.3125 236.125 67.4531 235.953 66.4219C235.797 65.375 235.719 64.3281 235.719 63.2812ZM236.609 53.5547L236.656 57.375H232.883C231.992 57.375 231.219 57.4766 230.562 57.6797C229.906 57.8828 229.367 58.1719 228.945 58.5469C228.523 58.9062 228.211 59.3281 228.008 59.8125C227.82 60.2969 227.727 60.8281 227.727 61.4062C227.727 61.9844 227.859 62.5078 228.125 62.9766C228.391 63.4297 228.773 63.7891 229.273 64.0547C229.773 64.3047 230.359 64.4297 231.031 64.4297C232.047 64.4297 232.93 64.2266 233.68 63.8203C234.43 63.4141 235.008 62.9141 235.414 62.3203C235.836 61.7266 236.055 61.1641 236.07 60.6328L237.852 63.4922C237.602 64.1328 237.258 64.7969 236.82 65.4844C236.398 66.1719 235.859 66.8203 235.203 67.4297C234.547 68.0234 233.758 68.5156 232.836 68.9062C231.914 69.2812 230.82 69.4688 229.555 69.4688C227.945 69.4688 226.484 69.1484 225.172 68.5078C223.875 67.8516 222.844 66.9531 222.078 65.8125C221.328 64.6562 220.953 63.3438 220.953 61.875C220.953 60.5469 221.203 59.3672 221.703 58.3359C222.203 57.3047 222.938 56.4375 223.906 55.7344C224.891 55.0156 226.117 54.4766 227.586 54.1172C229.055 53.7422 230.758 53.5547 232.695 53.5547H236.609Z" fill="white"/>
</svg>
